<svg id="Layer_1" data-name="Layer 1" xmlns="http://www.w3.org/2000/svg" viewBox="0 0 715.54 351.88"><defs><style>.cls-1{fill:#ff45e9;}.cls-2{fill:#fff;}</style></defs><title>Saverr LogoWHITE</title><text x="-52.29" y="-389.96"/><path class="cls-1" d="M148.51,639.73c-5.6-4.37-23.66-11.76-38-11.76-6.85,0-13.39,2.69-13.39,9.41,0,19.48,65.39,11.42,65.39,58.78,0,27.54-22.42,45.34-53.24,45.34-25.84,0-49.2-13.77-57-19.15,6.54-9.74,14.63-21.83,19-28.55,4,3,21.8,14.78,37.68,14.78,9.34,0,14-5,14-11.42,0-21.16-64.45-11.76-64.45-59.79,0-26.2,19-41.31,50.13-41.31,23.35,0,42,9.41,45.77,12.43Z" transform="translate(-52.29 -389.96)"/><path class="cls-2" d="M246.9,596.4c32.07,0,50.75,14.78,60.72,23.18V739.15H289.25V706.91c-9.34,24.85-31.14,34.6-48.57,34.6-39.23,0-59.78-31.24-59.78-72.21C180.89,628.65,204.55,596.4,246.9,596.4Zm-4.36,127c20.24,0,46.71-16.79,46.71-65.16V628.65c-8.41-7.39-21.8-14.11-41.72-14.11-31.14,0-47.64,24.52-47.64,55.42C199.88,700.52,213.58,723.36,242.54,723.36Z" transform="translate(-52.29 -389.96)"/><path class="cls-2" d="M388.26,741.17L321.63,598.75H342.8l47,105.8,47-105.8H458L391.69,741.17h-3.42Z" transform="translate(-52.29 -389.96)"/><path class="cls-2" d="M480.74,672c0,33.59,19.93,52.06,49.51,52.06,17.13,0,28.34-6.38,37.68-14.44l9.65,15.11c-16.5,13.1-29.89,17.13-47.33,17.13-42.66,0-68.19-27.88-68.19-72.89,0-44,26.78-72.55,62-72.55,33,0,55.73,23.18,57.91,58.78a146.43,146.43,0,0,1,0,16.79H480.74Zm0.93-16.12h83.45c-1.25-28.55-18.68-42.66-40.79-42.66C503.16,613.2,485.73,628.31,481.68,655.85Z" transform="translate(-52.29 -389.96)"/><path class="cls-2" d="M629.27,676v63.14H610.59V598.75h18.68V628c6.85-22.5,26.78-33.59,49.82-30.9l-3.42,18.14C639.55,609.84,629.27,643.76,629.27,676Z" transform="translate(-52.29 -389.96)"/><path class="cls-2" d="M718,676v63.14H699.33V598.75H718V628c6.85-22.5,26.78-33.59,49.82-30.9l-3.43,18.14C728.29,609.84,718,643.76,718,676Z" transform="translate(-52.29 -389.96)"/></svg>